# xmcd
#
# Track frame offsets:
#	150
#	15542
#	28747
#
# Disc length: 584 seconds
#
# Revision: 0
# Processed by: cddbd v1.5.2PL0 Copyright (c) Steve Scherf et al.
# Submitted via: audiograbber 1.83.01
#
DISCID=19024603
DTITLE=Neon2 - Polku [CDM)
DYEAR=1992
DGENRE=Pop
TTITLE0=Polku (Radiomix)
TTITLE1=Polku (Teetä Kahdelle Mix)
TTITLE2=Polku (Klo 7:15 Karaoke Mix)
EXTD=TR.
EXTT0=
EXTT1=
EXTT2=
PLAYORDER=
